<svg width="40" height="40" viewBox="0 0 40 40" fill="none" xmlns="http://www.w3.org/2000/svg">
<path d="M0 20C0 8.95431 8.95431 0 20 0C31.0457 0 40 8.95431 40 20C40 31.0457 31.0457 40 20 40C8.95431 40 0 31.0457 0 20Z" fill="url(#paint0_linear_1_654)"/>
<path d="M10 17.5C10 16.3872 10.3376 15.3006 10.9681 14.3837C11.5987 13.4667 12.4925 12.7627 13.5316 12.3644C14.5707 11.9661 15.7062 11.8924 16.788 12.153C17.8699 12.4136 18.8472 12.9963 19.591 13.824C19.6434 13.88 19.7067 13.9247 19.7771 13.9552C19.8474 13.9857 19.9233 14.0015 20 14.0015C20.0767 14.0015 20.1526 13.9857 20.2229 13.9552C20.2933 13.9247 20.3566 13.88 20.409 13.824C21.1504 12.9909 22.128 12.4034 23.2116 12.1396C24.2952 11.8758 25.4335 11.9483 26.4749 12.3475C27.5163 12.7466 28.4114 13.4535 29.0411 14.3739C29.6708 15.2943 30.0053 16.3848 30 17.5C30 19.79 28.5 21.5 27 23L21.508 28.313C21.3217 28.527 21.0919 28.6989 20.834 28.8173C20.5762 28.9357 20.296 28.9978 20.0123 28.9996C19.7285 29.0014 19.4476 28.9428 19.1883 28.8277C18.9289 28.7126 18.697 28.5436 18.508 28.332L13 23C11.5 21.5 10 19.8 10 17.5Z" stroke="white" stroke-width="2" stroke-linecap="round" stroke-linejoin="round"/>
<defs>
<linearGradient id="paint0_linear_1_654" x1="0" y1="0" x2="40" y2="40" gradientUnits="userSpaceOnUse">
<stop stop-color="#F6339A"/>
<stop offset="1" stop-color="#AD46FF"/>
</linearGradient>
</defs>
</svg>
